<svg width="1440" height="686" viewBox="0 0 1440 686" fill="none" xmlns="http://www.w3.org/2000/svg">
<path opacity="0.2" d="M-306.557 328.077C-231.014 254.255 -141.623 179.116 -35.6661 177.865C37.6692 176.996 109.731 215.564 148.256 276.299C178.084 323.327 188.103 380.759 219.079 427.058C257.902 485.107 329.816 520.061 400.898 515.423C482.59 510.091 556.549 457.323 638.352 455.982C700.039 454.967 758.147 483.707 807.18 519.817C856.212 555.926 898.823 599.833 947.777 636.057C987.522 665.476 1035.66 690.549 1085.3 683.324C1133.9 676.247 1174.11 638.21 1193.57 593.798C1213.02 549.402 1214.51 499.511 1209.59 451.709C1205.35 410.488 1196.71 368.08 1208.75 328.159C1222.57 282.381 1261.54 247.792 1302.82 222.329C1344.13 196.861 1389.53 177.793 1428.39 148.851C1478.04 111.881 1515.36 59.1626 1533.26 0.74867" stroke="#007163" stroke-miterlimit="10"/>
</svg>
